<?xml version="1.0" encoding="utf-8"?>
<?xml-stylesheet type="text/xsl" href="rss1.xsl"?>
<rss version="2.0" xmlns:atom="http://www.w3.org/2005/Atom" xmlns:content="http://purl.org/rss/1.0/modules/content/" xmlns:dc="http://purl.org/dc/elements/1.1/" xmlns:media="http://search.yahoo.com/mrss/">
<channel>
 <title>Getty</title>
 <link>http://www.gettyimg.com/</link>
 <atom:link href="http://www.gettyimg.com/" rel="self" type="application/rss+xml" />

 
                <item>
                <title><![CDATA[【HD Live Performances】FEED - Avril Lavigne - Complicated &amp; Sk8er Boi (Live @ Glastonbury 2024) FEED HDTV H264 1080i 422 MP2-ilya2129]]></title>
                <link><![CDATA[https://sharemania.us/threads/avril-lavigne-complicated-sk8er-boi-live-glastonbury-2024-feed-hdtv-h264-1080i-422-mp2-ilya2129.249025/]]></link>
                <description><![CDATA[<article>
<blockquote class="messageText SelectQuoteContainer ugc baseHtml">
<div style="text-align: center"><img src="https://i122.fastpic.org/big/2023/0623/b4/b37c6294354538a70aac338bdf3af5b4.png?r=1" class="bbCodeImage LbImage" alt="[​IMG]" data-url="https://i122.fastpic.org/big/2023/0623/b4/b37c6294354538a70aac338bdf3af5b4.png?r=1" style=""><br>
<br>
<a href="https://fastpic.org/view/123/2024/0707/_817194441e7e79f2e297f745e6a8264f.png.html" target="_blank" class="externalLink" rel="nofollow"><img src="https://i123.fastpic.org/thumb/2024/0707/4f/_817194441e7e79f2e297f745e6a8264f.jpeg" class="bbCodeImage LbImage" alt="[​IMG]" data-url="https://i123.fastpic.org/thumb/2024/0707/4f/_817194441e7e79f2e297f745e6a8264f.jpeg"></a> <a href="https://fastpic.org/view/123/2024/0707/_d88645b399129d459e83bbc3cecb7083.png.html" target="_blank" class="externalLink" rel="nofollow"><img src="https://i123.fastpic.org/thumb/2024/0707/83/_d88645b399129d459e83bbc3cecb7083.jpeg" class="bbCodeImage LbImage" alt="[​IMG]" data-url="https://i123.fastpic.org/thumb/2024/0707/83/_d88645b399129d459e83bbc3cecb7083.jpeg"></a> <a href="https://fastpic.org/view/123/2024/0707/_6f3408f1b3626c3a242317f702e99ff0.png.html" target="_blank" class="externalLink" rel="nofollow"><img src="https://i123.fastpic.org/thumb/2024/0707/f0/_6f3408f1b3626c3a242317f702e99ff0.jpeg" class="bbCodeImage LbImage" alt="[​IMG]" data-url="https://i123.fastpic.org/thumb/2024/0707/f0/_6f3408f1b3626c3a242317f702e99ff0.jpeg"></a><br>
<br>
​</div><br>
<div class="bbCodeBlock bbCodeCode">
<div class="type">Code:</div>
<pre>General
ID                                       : 1 (0x1)
Complete name                            : C:\Recordings\Glasto 2024\Avril Lavigne - Complicated &amp; Sk8er Boi (Live @ Glastonbury 2024) FEED HDTV H264 1080i 422 MP2-ilya2129.ts
Format                                   : MPEG-TS
File size                                : 2.91 GiB
Duration                                 : 12 min 51 s
Overall bit rate mode                    : Variable
Overall bit rate                         : 32.4 Mb/s
Frame rate                               : 25.000 FPS

Video
ID                                       : 501 (0x1F5)
Menu ID                                  : 1 (0x1)
Format                                   : AVC
Format/Info                              : Advanced Video Codec
Format profile                           : High 4:2:2@L4.1
Format settings                          : CABAC / 4 Ref Frames
Format settings, CABAC                   : Yes
Format settings, Reference frames        : 4 frames
Codec ID                                 : 27
Duration                                 : 12 min 51 s
Bit rate                                 : 30.4 Mb/s
Width                                    : 1 920 pixels
Height                                   : 1 080 pixels
Display aspect ratio                     : 16:9
Active Format Description                : Full frame 16:9 image
Frame rate                               : 25.000 FPS
Color space                              : YUV
Chroma subsampling                       : 4:2:2
Bit depth                                : 10 bits
Scan type                                : Interlaced
Scan type, store method                  : Separated fields
Scan order                               : Top Field First
Bits/(Pixel*Frame)                       : 0.586
Stream size                              : 2.73 GiB (94%)
Color range                              : Limited
Color primaries                          : BT.709
Transfer characteristics                 : BT.709
Matrix coefficients                      : BT.709

Audio
ID                                       : 4112 (0x1010)
Menu ID                                  : 1 (0x1)
Format                                   : MPEG Audio
Format version                           : Version 1
Format profile                           : Layer 2
Codec ID                                 : 4
Duration                                 : 12 min 51 s
Bit rate mode                            : Constant
Bit rate                                 : 384 kb/s
Channel(s)                               : 2 channels
Sampling rate                            : 48.0 kHz
Frame rate                               : 41.667 FPS (1152 SPF)
Compression mode                         : Lossy
Delay relative to video                  : 109 ms
Stream size                              : 35.3 MiB (1%)
Language                                 : English

</pre>
</div>
<div class="bbCodeBlock bbCodeVfcHH HiddenContent">
<div class="attribution type">Hidden Content:</div>
<blockquote>You must reply before you can see the hidden data contained here.</blockquote>
</div>
<div class="messageTextEndMarker">&nbsp;</div>
</blockquote>
</article>]]></description>
                <author><![CDATA[ilya2129]]></author>
                </item>

                
                <item>
                <title><![CDATA[【Albums (lossy)】M4A - STAYC - Star To A Young Culture (Stereo Spatial) 44KHZ/16Bits (385kbps)]]></title>
                <link><![CDATA[https://sharemania.us/threads/stayc-star-to-a-young-culture-stereo-spatial-44khz-16bits-385kbps.249028/]]></link>
                <description><![CDATA[<article>
<blockquote class="messageText SelectQuoteContainer ugc baseHtml">
Thank you
<div class="messageTextEndMarker">&nbsp;</div>
</blockquote>
</article>]]></description>
                <author><![CDATA[Reyn29392]]></author>
                </item>

                
                <item>
                <title><![CDATA[【Apple Music】WEB-RiP - Cristina Vasiu - Hot de inimi (feat. What's Up) (1080p)]]></title>
                <link><![CDATA[https://sharemania.us/threads/cristina-vasiu-hot-de-inimi-feat-whats-up-1080p.249029/]]></link>
                <description><![CDATA[<article>
<blockquote class="messageText SelectQuoteContainer ugc baseHtml">
thanks
<div class="messageTextEndMarker">&nbsp;</div>
</blockquote>
</article>]]></description>
                <author><![CDATA[vitalya3]]></author>
                </item>

                
                <item>
                <title><![CDATA[【HD Live Performances】FEED - SZA - Live @ Glastonbury 2024 FEED HDTV H264 1080i 422 MP2-ilya2129]]></title>
                <link><![CDATA[https://sharemania.us/threads/sza-live-glastonbury-2024-feed-hdtv-h264-1080i-422-mp2-ilya2129.249027/]]></link>
                <description><![CDATA[<article>
<blockquote class="messageText SelectQuoteContainer ugc baseHtml">
<img src="https://thumbs2.imgbox.com/08/e3/1lmuSrH7_t.jpg" class="bbCodeImage LbImage" alt="[​IMG]" data-url="https://thumbs2.imgbox.com/08/e3/1lmuSrH7_t.jpg" style=""><br>
<br>
Technical details<br>
(Volume normalized and intelligent)<br>
(Stereo audio expandable to 5.1 surround audio)<br>
(385KBPS Ultra High Quality 44KHZ/16)<br>
<br>
Supported Devices<br>
Android 9, Android TV 9, Google TV, IOS 13, Windows 11, Xbox one and Series, Amazon's Fire OS 7 (based on Android 9 Pie)<br>
<br>
<div class="bbCodeBlock bbCodeVfcHH HiddenContent">
<div class="attribution type">Hidden Content:</div>
<blockquote>You must reply before you can see the hidden data contained here.</blockquote>
</div>5.1 sound offers compatibility with new and legacy decoders (Dolby Pro Logic II).<br>
<img src="https://images2.imgbox.com/5c/b9/490YMHiI_o.png" class="bbCodeImage LbImage" alt="[​IMG]" data-url="https://images2.imgbox.com/5c/b9/490YMHiI_o.png" style=""><br>
And an exclusive binaural mode for headphones<br>
<img src="https://thumbs2.imgbox.com/5b/17/00QhIFT9_t.jpg" class="bbCodeImage LbImage" alt="[​IMG]" data-url="https://thumbs2.imgbox.com/5b/17/00QhIFT9_t.jpg" style="">
<div class="messageTextEndMarker">&nbsp;</div>
</blockquote>
</article>]]></description>
                <author><![CDATA[ilya2129]]></author>
                </item>

                
                <item>
                <title><![CDATA[【SD】Big Ali - Neon Music (Remix) (2009, DVD-Rip, Dance)]]></title>
                <link><![CDATA[https://sharemania.us/threads/big-ali-neon-music-remix-2009-dvd-rip-dance.249031/]]></link>
                <description><![CDATA[<article>
<blockquote class="messageText SelectQuoteContainer ugc baseHtml">
<img src="https://i.postimg.cc/DZcJNKnV/Cristina-Vasiu-Hot-de-inimi-feat-What-s-Up-mp4.jpg" class="bbCodeImage LbImage" alt="[​IMG]" data-url="https://i.postimg.cc/DZcJNKnV/Cristina-Vasiu-Hot-de-inimi-feat-What-s-Up-mp4.jpg" style=""><br>
<br>
<div class="bbCodeBlock bbCodeCode">
<div class="type">Code:</div>
<pre>General
Complete name                  : G:\Новая папка\Cristina Vasiu - Hot de inimi (feat. What's Up).mp4
Format                         : MPEG-4
Format profile                 : Base Media
Codec ID                       : isom (isom/iso2/avc1/mp41)
File size                      : 192 MiB
Duration                       : 3 min 56 s
Overall bit rate               : 6 837 kb/s
Frame rate                     : 25.000 FPS
Movie name                     : Hot de inimi (feat. What's Up)
Performer                      : Cristina Vasiu
Genre                          : Pop
ContentType                    : Music Video
Recorded date                  : 2021-10-07 07:00:00 UTC
Writing application            : Lavf56.30.100
Copyright                      : ℗ 2016 Cat Music

Video
ID                             : 1
Format                         : AVC
Format/Info                    : Advanced Video Codec
Format profile                 : High@L4
Format settings                : CABAC / 4 Ref Frames
Format settings, CABAC         : Yes
Format settings, Reference fra : 4 frames
Format settings, Slice count   : 8 slices per frame
Codec ID                       : avc1
Codec ID/Info                  : Advanced Video Coding
Duration                       : 3 min 56 s
Bit rate                       : 6 574 kb/s
Width                          : 1 920 pixels
Height                         : 1 080 pixels
Display aspect ratio           : 16:9
Frame rate mode                : Constant
Frame rate                     : 25.000 FPS
Color space                    : YUV
Chroma subsampling             : 4:2:0
Bit depth                      : 8 bits
Scan type                      : Progressive
Bits/(Pixel*Frame)             : 0.127
Stream size                    : 185 MiB (96%)
Color range                    : Limited
Color primaries                : BT.709
Transfer characteristics       : BT.709
Matrix coefficients            : BT.709
Codec configuration box        : avcC

Audio
ID                             : 2
Format                         : AAC LC
Format/Info                    : Advanced Audio Codec Low Complexity
Codec ID                       : mp4a-40-2
Duration                       : 3 min 56 s
Duration_LastFrame             : -9 ms
Bit rate mode                  : Constant
Bit rate                       : 258 kb/s
Channel(s)                     : 2 channels
Channel layout                 : L R
Sampling rate                  : 48.0 kHz
Frame rate                     : 46.875 FPS (1024 SPF)
Compression mode               : Lossy
Stream size                    : 7.28 MiB (4%)
Default                        : Yes
Alternate group                : 1

</pre>
</div>
<div class="bbCodeBlock bbCodeVfcHH HiddenContent">
<div class="attribution type">Hidden Content:</div>
<blockquote>You must either reply or click 'Like' to see the hidden information contained here.</blockquote>
</div>
<div class="messageTextEndMarker">&nbsp;</div>
</blockquote>
</article>]]></description>
                <author><![CDATA[fritching]]></author>
                </item>

                
                <item>
                <title><![CDATA[【SD】Backstreet Boys - Everybody (Backstreet's Back) (1997, DVD-Rip)]]></title>
                <link><![CDATA[https://sharemania.us/threads/backstreet-boys-everybody-backstreets-back-1997-dvd-rip.249024/]]></link>
                <description><![CDATA[<article>
<blockquote class="messageText SelectQuoteContainer ugc baseHtml">
<div style="text-align: center"><img src="https://i122.fastpic.org/big/2023/0623/b4/b37c6294354538a70aac338bdf3af5b4.png?r=1" class="bbCodeImage LbImage" alt="[​IMG]" data-url="https://i122.fastpic.org/big/2023/0623/b4/b37c6294354538a70aac338bdf3af5b4.png?r=1" style=""><br>
<br>
<a href="https://fastpic.org/view/123/2024/0707/_646ce6c637edf268ca96425a97482abd.png.html" target="_blank" class="externalLink" rel="nofollow"><img src="https://i123.fastpic.org/thumb/2024/0707/bd/_646ce6c637edf268ca96425a97482abd.jpeg" class="bbCodeImage LbImage" alt="[​IMG]" data-url="https://i123.fastpic.org/thumb/2024/0707/bd/_646ce6c637edf268ca96425a97482abd.jpeg"></a> <a href="https://fastpic.org/view/123/2024/0707/_6942f99650adbce2589c11e646dd991e.png.html" target="_blank" class="externalLink" rel="nofollow"><img src="https://i123.fastpic.org/thumb/2024/0707/1e/_6942f99650adbce2589c11e646dd991e.jpeg" class="bbCodeImage LbImage" alt="[​IMG]" data-url="https://i123.fastpic.org/thumb/2024/0707/1e/_6942f99650adbce2589c11e646dd991e.jpeg"></a> <a href="https://fastpic.org/view/123/2024/0707/_ec22e811e6fd78206aee37ac4bfa7018.png.html" target="_blank" class="externalLink" rel="nofollow"><img src="https://i123.fastpic.org/thumb/2024/0707/18/_ec22e811e6fd78206aee37ac4bfa7018.jpeg" class="bbCodeImage LbImage" alt="[​IMG]" data-url="https://i123.fastpic.org/thumb/2024/0707/18/_ec22e811e6fd78206aee37ac4bfa7018.jpeg"></a><br>
<br>
PSA<br>
Love Galore<br>
Go Gina<br>
Broken Clocks<br>
All the Stars<br>
Prom<br>
Garden (Say It Like Dat)<br>
Drew Barrymore<br>
F2F<br>
Forgiveless<br>
Ghost in the Machine<br>
Blind<br>
Shirt<br>
Kiss Me More<br>
Kiss<br>
I Hate U<br>
Snooze<br>
Kill Bill<br>
Low<br>
Supermodel / Special<br>
Open Arms<br>
Nobody Gets Me<br>
Normal Girl<br>
Saturn<br>
Rich Baby Daddy<br>
The Weekend<br>
Good Days<br>
20 Something<br>
<br>
​</div><br>
<div class="bbCodeBlock bbCodeCode">
<div class="type">Code:</div>
<pre>General
ID                                       : 1 (0x1)
Complete name                            : C:\Recordings\Glasto 2024\SZA - Live @ Glastonbury 2024 FEED HDTV H264 1080i 422 MP2-ilya2129.ts
Format                                   : MPEG-TS
File size                                : 18.8 GiB
Duration                                 : 1 h 23 min
Overall bit rate mode                    : Variable
Overall bit rate                         : 32.2 Mb/s
Frame rate                               : 25.000 FPS

Video
ID                                       : 501 (0x1F5)
Menu ID                                  : 1 (0x1)
Format                                   : AVC
Format/Info                              : Advanced Video Codec
Format profile                           : High 4:2:2@L4.1
Format settings                          : CABAC / 4 Ref Frames
Format settings, CABAC                   : Yes
Format settings, Reference frames        : 4 frames
Codec ID                                 : 27
Duration                                 : 1 h 23 min
Bit rate                                 : 30.2 Mb/s
Width                                    : 1 920 pixels
Height                                   : 1 080 pixels
Display aspect ratio                     : 16:9
Active Format Description                : Full frame 16:9 image
Frame rate                               : 25.000 FPS
Color space                              : YUV
Chroma subsampling                       : 4:2:2
Bit depth                                : 10 bits
Scan type                                : Interlaced
Scan type, store method                  : Separated fields
Scan order                               : Top Field First
Bits/(Pixel*Frame)                       : 0.583
Stream size                              : 17.6 GiB (94%)
Color range                              : Limited
Color primaries                          : BT.709
Transfer characteristics                 : BT.709
Matrix coefficients                      : BT.709

Audio
ID                                       : 4112 (0x1010)
Menu ID                                  : 1 (0x1)
Format                                   : MPEG Audio
Format version                           : Version 1
Format profile                           : Layer 2
Codec ID                                 : 4
Duration                                 : 1 h 23 min
Bit rate mode                            : Constant
Bit rate                                 : 384 kb/s
Channel(s)                               : 2 channels
Sampling rate                            : 48.0 kHz
Frame rate                               : 41.667 FPS (1152 SPF)
Compression mode                         : Lossy
Delay relative to video                  : 108 ms
Stream size                              : 229 MiB (1%)
Language                                 : English


</pre>
</div>
<div class="bbCodeBlock bbCodeVfcHH HiddenContent">
<div class="attribution type">Hidden Content:</div>
<blockquote>You must reply before you can see the hidden data contained here.</blockquote>
</div>
<div class="messageTextEndMarker">&nbsp;</div>
</blockquote>
</article>]]></description>
                <author><![CDATA[fritching]]></author>
                </item>

                
                <item>
                <title><![CDATA[【Albums (lossy)】M4A - STAYC - STAYDOM (Stereo Spatial) 44KHZ/16bits (385kbps)]]></title>
                <link><![CDATA[https://sharemania.us/threads/stayc-staydom-stereo-spatial-44khz-16bits-385kbps.249030/]]></link>
                <description><![CDATA[<article>
<blockquote class="messageText SelectQuoteContainer ugc baseHtml">
Thank you
<div class="messageTextEndMarker">&nbsp;</div>
</blockquote>
</article>]]></description>
                <author><![CDATA[Reyn29392]]></author>
                </item>

                
                <item>
                <title><![CDATA[【Apple Music】WEB-RiP - Jerome &amp; Neptunica - High on Music (1080p)]]></title>
                <link><![CDATA[https://sharemania.us/threads/jerome-neptunica-high-on-music-1080p.249026/]]></link>
                <description><![CDATA[<article>
<blockquote class="messageText SelectQuoteContainer ugc baseHtml">
Big Ali - Neon Music (Remix) (2009, DVD-Rip, Dance)<br>
<br>
<img src="https://images2.imgbox.com/b2/4a/LINOAfVJ_o.jpg" class="bbCodeImage LbImage" alt="[​IMG]" data-url="https://images2.imgbox.com/b2/4a/LINOAfVJ_o.jpg" style=""> <br>
<br>
<span data-s9e-mediaembed="youtube" style="display:inline-block;width:100%;max-width:640px"><span style="display:block;overflow:hidden;position:relative;padding-bottom:56.25%"><iframe allowfullscreen="" loading="lazy" scrolling="no" style="background:url(https://i.ytimg.com/vi/T4XHqM6hyLY/hqdefault.jpg) 50% 50% / cover;border:0;height:100%;left:0;position:absolute;width:100%" src="https://www.youtube.com/embed/T4XHqM6hyLY"></iframe></span></span><br>
<br>
<div class="bbCodeBlock bbCodeVfcHH HiddenContent">
<div class="attribution type">Hidden Content:</div>
<blockquote>You must reply before you can see the hidden data contained here.</blockquote>
</div>Greets, 3rsin.
<div class="messageTextEndMarker">&nbsp;</div>
</blockquote>
</article>]]></description>
                <author><![CDATA[vitalya3]]></author>
                </item>

                </channel></rss>